<svg width="24" height="24" viewBox="0 0 24 24" fill="none" xmlns="http://www.w3.org/2000/svg">
<g clip-path="url(#clip0_434_509)">
<path d="M20.9828 16.485C20.4868 17.5865 20.2478 18.0788 19.6099 19.051C18.7169 20.4094 17.4573 22.1056 15.9012 22.1164C14.5158 22.129 14.1582 21.2126 12.2769 21.2288C10.3974 21.2378 10.0056 22.1344 8.61845 22.12C7.06056 22.1056 5.86923 20.5783 4.97619 19.2217C2.47853 15.4177 2.21439 10.9578 3.75791 8.58596C4.85041 6.90408 6.5772 5.9158 8.19978 5.9158C9.85291 5.9158 10.8915 6.82322 12.2571 6.82322C13.5832 6.82322 14.39 5.91401 16.3019 5.91401C17.7466 5.91401 19.2739 6.70104 20.3664 8.05947C16.7942 10.0181 17.3746 15.1194 20.9828 16.485ZM14.85 4.39565C15.5454 3.5026 16.0737 2.24299 15.8814 0.960022C14.7476 1.03729 13.4215 1.76143 12.647 2.6994C11.9445 3.55471 11.3623 4.8233 11.5887 6.05057C12.8267 6.0901 14.1079 5.35158 14.85 4.39565Z" fill="#1A1A1A"/>
</g>
<defs>
<clipPath id="clip0_434_509">
<rect width="23" height="23" fill="white" transform="translate(0.5 0.5)"/>
</clipPath>
</defs>
</svg>
