<svg width="24" height="24" viewBox="0 0 24 24" fill="none" xmlns="http://www.w3.org/2000/svg">
<path d="M21.3968 10.1231H20.6248V10.0834H11.9998V13.9167H17.4159C16.6257 16.1482 14.5025 17.75 11.9998 17.75C8.8244 17.75 6.24984 15.1755 6.24984 12C6.24984 8.82458 8.8244 6.25002 11.9998 6.25002C13.4656 6.25002 14.7991 6.80298 15.8145 7.70621L18.5251 4.99556C16.8135 3.40042 14.5241 2.41669 11.9998 2.41669C6.70744 2.41669 2.4165 6.70762 2.4165 12C2.4165 17.2924 6.70744 21.5833 11.9998 21.5833C17.2922 21.5833 21.5832 17.2924 21.5832 12C21.5832 11.3575 21.517 10.7302 21.3968 10.1231Z" fill="#FFC107"/>
<path d="M3.52148 7.53946L6.67009 9.84856C7.52205 7.73927 9.58534 6.25002 11.9999 6.25002C13.4656 6.25002 14.7992 6.80298 15.8145 7.70621L18.5252 4.99556C16.8136 3.40042 14.5241 2.41669 11.9999 2.41669C8.3189 2.41669 5.12669 4.49483 3.52148 7.53946Z" fill="#FF3D00"/>
<path d="M11.9998 21.5834C14.4752 21.5834 16.7244 20.636 18.425 19.0955L15.4589 16.5856C14.4968 17.3145 13.3008 17.75 11.9998 17.75C9.5072 17.75 7.39072 16.1606 6.59339 13.9426L3.46826 16.3504C5.0543 19.4539 8.27526 21.5834 11.9998 21.5834Z" fill="#4CAF50"/>
<path d="M21.3969 10.1231H20.625V10.0833H12V13.9166H17.416C17.0365 14.9885 16.347 15.9129 15.4577 16.5861L15.4591 16.5851L18.4251 19.095C18.2153 19.2857 21.5833 16.7916 21.5833 12C21.5833 11.3574 21.5172 10.7302 21.3969 10.1231Z" fill="#1976D2"/>
</svg>
